<?xml version="1.0" encoding="UTF-8" standalone="no"?>
<!-- This Source Code Form is subject to the terms of the Mozilla Public
   - License, v. 2.0. If a copy of the MPL was not distributed with this
   - file, You can obtain one at http://mozilla.org/MPL/2.0/. -->

<svg
   xmlns:dc="http://purl.org/dc/elements/1.1/"
   xmlns:cc="http://creativecommons.org/ns#"
   xmlns:rdf="http://www.w3.org/1999/02/22-rdf-syntax-ns#"
   xmlns:svg="http://www.w3.org/2000/svg"
   xmlns="http://www.w3.org/2000/svg"
   xmlns:sodipodi="http://sodipodi.sourceforge.net/DTD/sodipodi-0.dtd"
   xmlns:inkscape="http://www.inkscape.org/namespaces/inkscape"
   width="16"
   height="16"
   viewBox="0 0 16 16"
   version="1.1"
   id="svg6"
   sodipodi:docname="button.svg"
   inkscape:version="0.92.4 5da689c313, 2019-01-14">
  <metadata
     id="metadata12">
    <rdf:RDF>
      <cc:Work
         rdf:about="">
        <dc:format>image/svg+xml</dc:format>
        <dc:type
           rdf:resource="http://purl.org/dc/dcmitype/StillImage" />
      </cc:Work>
    </rdf:RDF>
  </metadata>
  <defs
     id="defs10" />
  <sodipodi:namedview
     pagecolor="#ffffff"
     bordercolor="#666666"
     borderopacity="1"
     objecttolerance="10"
     gridtolerance="10"
     guidetolerance="10"
     inkscape:pageopacity="0"
     inkscape:pageshadow="2"
     inkscape:window-width="1270"
     inkscape:window-height="1398"
     id="namedview8"
     showgrid="false"
     inkscape:zoom="14.75"
     inkscape:cx="-6.1016949"
     inkscape:cy="8"
     inkscape:window-x="1284"
     inkscape:window-y="6"
     inkscape:window-maximized="1"
     inkscape:current-layer="svg6" />
  <path
     d="m 12.707,11.706 -4,4 A 1,1 0 0 1 8.38,15.923 0.984,0.984 0 0 1 8.134,15.973 0.938,0.938 0 0 1 8,16 0.938,0.938 0 0 1 7.866,15.973 0.984,0.984 0 0 1 7.62,15.923 1,1 0 0 1 7.291,15.7 l -4,-4 A 1,1 0 0 1 4.707,10.292 L 7,12.585 V 5 a 1,1 0 0 1 2,0 v 7.585 l 2.293,-2.293 a 1,1 0 0 1 1.414,1.414 z"
     id="path2"
     inkscape:connector-curvature="0"
     style="fill:context-fill" />
  <path
     d="M 14,7 A 1,1 0 0 1 13,6 V 3 A 1,1 0 0 0 12,2 H 4 A 1,1 0 0 0 3,3 V 6 A 1,1 0 0 1 1,6 V 3 A 3,3 0 0 1 4,0 h 8 a 3,3 0 0 1 3,3 v 3 a 1,1 0 0 1 -1,1 z"
     id="path4"
     inkscape:connector-curvature="0"
     style="fill:context-fill" />
</svg>
